<mxfile host="65bd71144e">
    <diagram id="07fea595-8f29-1299-0266-81d95cde20df" name="Page-1">
        <mxGraphModel dx="3152" dy="467" grid="1" gridSize="10" guides="1" tooltips="1" connect="1" arrows="1" fold="1" page="1" pageScale="1" pageWidth="1169" pageHeight="827" background="none" math="0" shadow="0">
            <root>
                <mxCell id="0"/>
                <mxCell id="1" parent="0"/>
                <mxCell id="698" value="" style="rounded=0;whiteSpace=wrap;html=1;shadow=0;labelBackgroundColor=none;strokeColor=none;strokeWidth=3;fillColor=#e8edf0;fontSize=60;fontColor=#2F5B7C;align=left;" parent="1" vertex="1">
                    <mxGeometry x="-2280" y="32" width="2250" height="1598" as="geometry"/>
                </mxCell>
                <mxCell id="699" value="&lt;div style=&quot;font-size: 26px&quot;&gt;&lt;font style=&quot;font-size: 26px&quot;&gt;Customer Relationships&lt;/font&gt;&lt;/div&gt;&lt;div&gt;&lt;strong style=&quot;background-color: initial;&quot;&gt;&lt;br&gt;&lt;/strong&gt;&lt;/div&gt;&lt;div&gt;&lt;strong style=&quot;background-color: initial;&quot;&gt;&lt;br&gt;&lt;/strong&gt;&lt;/div&gt;&lt;div&gt;&lt;span style=&quot;background-color: initial;&quot;&gt;&lt;b&gt;&lt;font style=&quot;font-size: 12px;&quot;&gt;Customer Relationships&lt;/font&gt;&lt;/b&gt;&lt;/span&gt;&lt;/div&gt;&lt;div&gt;&lt;div class=&quot;group/conversation-turn relative flex w-full min-w-0 flex-col agent-turn&quot;&gt;&lt;div class=&quot;flex-col gap-1 md:gap-3&quot;&gt;&lt;div class=&quot;flex max-w-full flex-col flex-grow&quot;&gt;&lt;div data-message-model-slug=&quot;gpt-4o&quot; class=&quot;min-h-8 text-message flex w-full flex-col items-end gap-2 whitespace-normal break-words [.text-message+&amp;amp;]:mt-5&quot; dir=&quot;auto&quot; data-message-id=&quot;518c1004-d701-45a4-ab6c-6a55765a61d5&quot; data-message-author-role=&quot;assistant&quot;&gt;&lt;div class=&quot;flex w-full flex-col gap-1 empty:hidden first:pt-[3px]&quot;&gt;&lt;div class=&quot;markdown prose w-full break-words dark:prose-invert dark&quot;&gt;&lt;ul&gt;&lt;li&gt;&lt;strong&gt;Self-Service:&lt;/strong&gt; Users can browse and consume content independently on the app and website, supporting a seamless, user-driven experience.&lt;/li&gt;&lt;li&gt;&lt;strong&gt;Automated Services:&lt;/strong&gt; Personalized news recommendations and notifications tailored to individual preferences.&lt;/li&gt;&lt;li&gt;&lt;strong&gt;Community Interaction:&lt;/strong&gt; User comments, likes, and discussions foster a sense of community.&lt;/li&gt;&lt;li&gt;&lt;strong&gt;Co-Creation:&lt;/strong&gt; Users contribute feedback, ideas, and can report on local events, enhancing content relevance.&lt;br&gt;&lt;/li&gt;&lt;/ul&gt;&lt;/div&gt;&lt;/div&gt;&lt;/div&gt;&lt;/div&gt;&lt;/div&gt;&lt;/div&gt;&lt;/div&gt;" style="rounded=0;whiteSpace=wrap;html=1;shadow=0;labelBackgroundColor=none;strokeColor=#e8edf0;strokeWidth=5;fillColor=#ffffff;fontSize=12;fontColor=#2F5B7C;align=left;verticalAlign=top;spacing=30;" parent="1" vertex="1">
                    <mxGeometry x="-950" y="220" width="420" height="450" as="geometry"/>
                </mxCell>
                <mxCell id="700" value="&lt;font&gt;&lt;font style=&quot;font-size: 26px&quot;&gt;Key Partners&lt;/font&gt;&lt;br&gt;&lt;/font&gt;&lt;font style=&quot;font-size: 12px&quot;&gt;&lt;br style=&quot;font-size: 12px&quot;&gt;&lt;h3&gt;&lt;strong&gt;Key Partners&lt;/strong&gt;&lt;/h3&gt;&lt;p style=&quot;line-height: 120%;&quot;&gt;&lt;b&gt;Who are our Key Partners?&lt;/b&gt;&lt;/p&gt;&lt;ul style=&quot;line-height: 120%;&quot;&gt;&lt;li&gt;&lt;strong&gt;Journalists and Reporters:&lt;/strong&gt; Provide timely, accurate news and insights from various fields.&lt;/li&gt;&lt;li&gt;&lt;strong&gt;Content Authors and Freelance Writers:&lt;/strong&gt; Contribute in-depth articles, opinion pieces, and specialized content.&lt;/li&gt;&lt;li&gt;&lt;b&gt;Public Community Contributors&lt;/b&gt;&lt;strong&gt;:&lt;/strong&gt; Engage in content creation through comments, community reporting, and interactive features.&lt;/li&gt;&lt;li&gt;&lt;strong&gt;Advertisers and Sponsors:&lt;/strong&gt; Support revenue generation through ad placements, sponsored content, and partnership promotions.&lt;/li&gt;&lt;/ul&gt;&lt;p style=&quot;line-height: 120%;&quot;&gt;&lt;strong&gt;Who are our Key Suppliers?&lt;/strong&gt;&lt;/p&gt;&lt;ul style=&quot;line-height: 120%;&quot;&gt;&lt;li&gt;&lt;strong&gt;Advertising Networks and Platforms:&lt;/strong&gt; Supply ad inventory and manage ad distribution.&lt;/li&gt;&lt;li&gt;&lt;strong&gt;News Agencies and Syndicates:&lt;/strong&gt; Provide syndicated news feeds for broader content coverage.&lt;/li&gt;&lt;/ul&gt;&lt;p style=&quot;line-height: 120%;&quot;&gt;&lt;strong&gt;Which Key Resources are we acquiring from partners?&lt;/strong&gt;&lt;/p&gt;&lt;ul style=&quot;line-height: 120%;&quot;&gt;&lt;li&gt;&lt;b&gt;Content Resources:&lt;/b&gt; News articles, opinion pieces, and live reports.&lt;/li&gt;&lt;li&gt;&lt;strong&gt;Community Engagement:&lt;/strong&gt; User-generated content and interactive participation.&lt;/li&gt;&lt;li&gt;&lt;strong&gt;Funding and Revenue Support:&lt;/strong&gt; Advertiser partnerships and sponsorships to fund operations and growth.&lt;/li&gt;&lt;li&gt;&lt;strong&gt;Brand Credibility:&lt;/strong&gt; Established journalists and quality advertisers enhance FactEchoâ€™s reputation and trustworthiness.&lt;/li&gt;&lt;/ul&gt;&lt;/font&gt;" style="rounded=0;whiteSpace=wrap;html=1;shadow=0;labelBackgroundColor=none;strokeColor=#e8edf0;strokeWidth=5;fillColor=#ffffff;fontSize=12;fontColor=#2F5B7C;align=left;verticalAlign=top;spacing=30;" parent="1" vertex="1">
                    <mxGeometry x="-2210" y="220" width="420" height="900" as="geometry"/>
                </mxCell>
                <mxCell id="701" value="&lt;font&gt;&lt;font style=&quot;font-size: 26px&quot;&gt;Key Activities&lt;/font&gt;&lt;br style=&quot;font-size: 12px&quot;&gt;&lt;/font&gt;&lt;font&gt;&lt;br style=&quot;font-size: 12px&quot;&gt;&lt;div&gt;&lt;p&gt;&lt;strong&gt;Value Propositions:&lt;/strong&gt;&lt;/p&gt;&lt;ul&gt;&lt;li&gt;Create, curate, and fact-check news content to ensure quality.&lt;/li&gt;&lt;li&gt;Personalize content to enhance user engagement.&lt;/li&gt;&lt;li&gt;Manage ads and sponsored content for revenue generation.&lt;/li&gt;&lt;/ul&gt;&lt;p&gt;&lt;strong&gt;Distribution Channels:&lt;/strong&gt;&lt;/p&gt;&lt;ul&gt;&lt;li&gt;Deliver news via app, website, and social media.&lt;/li&gt;&lt;li&gt;Use newsletters and notifications to engage users.&lt;/li&gt;&lt;/ul&gt;&lt;p&gt;&lt;strong&gt;Customer Relationships:&lt;/strong&gt;&lt;/p&gt;&lt;ul&gt;&lt;li&gt;Provide user support and gather feedback.&lt;/li&gt;&lt;li&gt;Build community through interactive features.&lt;/li&gt;&lt;li&gt;Offer premium, personalized experiences.&lt;/li&gt;&lt;/ul&gt;&lt;p&gt;&lt;strong&gt;Revenue Streams:&lt;/strong&gt;&lt;/p&gt;&lt;ul&gt;&lt;li&gt;Earn through ads, subscriptions, and sponsored content.&lt;/li&gt;&lt;/ul&gt;&lt;/div&gt;&lt;/font&gt;" style="rounded=0;whiteSpace=wrap;html=1;shadow=0;labelBackgroundColor=none;strokeColor=#e8edf0;strokeWidth=5;fillColor=#ffffff;fontSize=12;fontColor=#2F5B7C;align=left;verticalAlign=top;spacing=30;" parent="1" vertex="1">
                    <mxGeometry x="-1790" y="220" width="420" height="450" as="geometry"/>
                </mxCell>
                <mxCell id="702" value="&lt;div&gt;&lt;font style=&quot;font-size: 26px&quot;&gt;Key Resources&lt;/font&gt;&lt;/div&gt;&lt;div&gt;&lt;strong style=&quot;background-color: initial;&quot;&gt;&lt;br&gt;&lt;/strong&gt;&lt;/div&gt;&lt;div&gt;&lt;h3&gt;&lt;strong&gt;&lt;font style=&quot;font-size: 12px;&quot;&gt;Key Resources&lt;/font&gt;&lt;/strong&gt;&lt;/h3&gt;&lt;ul&gt;&lt;li&gt;&lt;strong&gt;Value Propositions:&lt;/strong&gt; Content from journalists, free news sources, and community engagement.&lt;/li&gt;&lt;li&gt;&lt;strong&gt;Distribution Channels:&lt;/strong&gt; Mobile app, website, social media.&lt;/li&gt;&lt;li&gt;&lt;strong&gt;Customer Relationships:&lt;/strong&gt; Digital marketing, customer support.&lt;/li&gt;&lt;li&gt;&lt;strong&gt;Revenue Streams:&lt;/strong&gt; Advertising, subscriptions.&lt;/li&gt;&lt;/ul&gt;&lt;p&gt;&lt;strong&gt;Resource Types:&lt;/strong&gt;&lt;/p&gt;&lt;ul&gt;&lt;li&gt;&lt;strong&gt;Physical:&lt;/strong&gt; Servers.&lt;/li&gt;&lt;li&gt;&lt;strong&gt;Intellectual:&lt;/strong&gt; Brand (FactEcho), user data.&lt;/li&gt;&lt;li&gt;&lt;strong&gt;Human:&lt;/strong&gt; Journalists, Authors, marketers, tech support.&lt;/li&gt;&lt;li&gt;&lt;strong&gt;Financial:&lt;/strong&gt; Ad revenue, startup funds.&lt;/li&gt;&lt;/ul&gt;&lt;/div&gt;" style="rounded=0;whiteSpace=wrap;html=1;shadow=0;labelBackgroundColor=none;strokeColor=#e8edf0;strokeWidth=5;fillColor=#ffffff;fontSize=12;fontColor=#2F5B7C;align=left;verticalAlign=top;spacing=30;" parent="1" vertex="1">
                    <mxGeometry x="-1790" y="640" width="420" height="480" as="geometry"/>
                </mxCell>
                <mxCell id="703" value="&lt;div style=&quot;font-size: 26px&quot;&gt;&lt;font style=&quot;font-size: 26px&quot;&gt;Value Propositions&lt;/font&gt;&lt;/div&gt;&lt;div&gt;&lt;br&gt;&lt;/div&gt;&lt;div&gt;&lt;h3&gt;&lt;strong&gt;&lt;font style=&quot;font-size: 12px;&quot;&gt;Value Propositions&lt;/font&gt;&lt;/strong&gt;&lt;/h3&gt;&lt;ul&gt;&lt;li&gt;&lt;strong&gt;News Quality and Reliability:&lt;/strong&gt; High-quality, timely, and accurate news across diverse fields.&lt;/li&gt;&lt;li&gt;&lt;strong&gt;Personalized Experience:&lt;/strong&gt; Tailored news feeds and alerts to match user interests.&lt;/li&gt;&lt;li&gt;&lt;strong&gt;Community Engagement:&lt;/strong&gt; Interactive features for user discussions and feedback.&lt;/li&gt;&lt;li&gt;&lt;strong&gt;Flexible Access:&lt;/strong&gt; Available on mobile and web for on-the-go news consumption.&lt;/li&gt;&lt;li&gt;&lt;strong&gt;Premium Options:&lt;/strong&gt; Ad-free subscription for an enhanced, exclusive experience.&lt;/li&gt;&lt;/ul&gt;&lt;/div&gt;&lt;div style=&quot;font-size: 10px&quot;&gt;&lt;br&gt;&lt;/div&gt;" style="rounded=0;whiteSpace=wrap;html=1;shadow=0;labelBackgroundColor=none;strokeColor=#e8edf0;strokeWidth=5;fillColor=#ffffff;fontSize=12;fontColor=#2F5B7C;align=left;verticalAlign=top;spacing=30;" parent="1" vertex="1">
                    <mxGeometry x="-1370" y="220" width="420" height="900" as="geometry"/>
                </mxCell>
                <mxCell id="704" value="&lt;div&gt;&lt;font style=&quot;font-size: 26px&quot;&gt;Customer Segments&lt;/font&gt;&lt;/div&gt;&lt;div&gt;&lt;br&gt;&lt;/div&gt;&lt;div&gt;&lt;p&gt;&lt;b&gt;Target Customers&lt;/b&gt;&lt;/p&gt;&lt;ul&gt;&lt;li&gt;&lt;strong&gt;Mass Market:&lt;/strong&gt; General public seeking reliable news across various topics, including politics, entertainment, health, and technology.&lt;/li&gt;&lt;li&gt;&lt;strong&gt;Niche Market:&lt;/strong&gt; Specific demographics interested in specialized content, such as local news or specific industries.&lt;/li&gt;&lt;/ul&gt;&lt;p&gt;&lt;strong&gt;Most Important Customers&lt;/strong&gt;&lt;/p&gt;&lt;ul&gt;&lt;li&gt;&lt;strong&gt;Daily News Consumers:&lt;/strong&gt; Individuals who rely on quick access to timely news updates.&lt;/li&gt;&lt;li&gt;&lt;strong&gt;Community Engagers:&lt;/strong&gt; Users interested in local events and community discussions.&lt;/li&gt;&lt;li&gt;&lt;strong&gt;Subscribers:&lt;/strong&gt; Readers who prefer premium, ad-free content and enhanced features.&lt;/li&gt;&lt;/ul&gt;&lt;/div&gt;" style="rounded=0;whiteSpace=wrap;html=1;shadow=0;labelBackgroundColor=none;strokeColor=#e8edf0;strokeWidth=5;fillColor=#ffffff;fontSize=12;fontColor=#2F5B7C;align=left;verticalAlign=top;spacing=30;" parent="1" vertex="1">
                    <mxGeometry x="-530" y="220" width="420" height="900" as="geometry"/>
                </mxCell>
                <mxCell id="705" value="&lt;div&gt;&lt;font style=&quot;font-size: 26px&quot;&gt;Channels&lt;/font&gt;&lt;/div&gt;&lt;div&gt;&lt;strong style=&quot;background-color: initial;&quot;&gt;&lt;br&gt;&lt;/strong&gt;&lt;/div&gt;&lt;div&gt;&lt;strong style=&quot;background-color: initial;&quot;&gt;&lt;br&gt;&lt;/strong&gt;&lt;/div&gt;&lt;div&gt;&lt;strong style=&quot;background-color: initial;&quot;&gt;Customer Channels&lt;/strong&gt;&lt;/div&gt;&lt;div&gt;&lt;ul&gt;&lt;li&gt;&lt;strong&gt;Digital Presence:&lt;/strong&gt; App, website, and social media platforms, where users primarily engage and access news content.&lt;/li&gt;&lt;li&gt;&lt;strong&gt;Email &amp;amp; Notifications:&lt;/strong&gt; Newsletters, alerts, and updates delivered directly to users for continuous engagement.&lt;/li&gt;&lt;/ul&gt;&lt;p&gt;&lt;strong&gt;Channel Phases&lt;/strong&gt;&lt;/p&gt;&lt;ol&gt;&lt;li&gt;&lt;strong&gt;Awareness:&lt;/strong&gt; Social media marketing, SEO, and targeted ads to increase brand visibility.&lt;/li&gt;&lt;li&gt;&lt;strong&gt;Evaluation:&lt;/strong&gt; Free access to curated articles and sample content showcases our quality.&lt;/li&gt;&lt;li&gt;&lt;strong&gt;Purchase:&lt;/strong&gt; In-app subscription options for users to upgrade to premium, ad-free experiences.&lt;/li&gt;&lt;li&gt;&lt;strong&gt;Delivery:&lt;/strong&gt; Real-time content updates on app and website for seamless access.&lt;/li&gt;&lt;li&gt;&lt;strong&gt;After-Sales Support:&lt;/strong&gt; FAQ, in-app support, and email assistance to resolve user issues.&lt;/li&gt;&lt;/ol&gt;&lt;p&gt;&lt;strong&gt;Channel Efficiency&lt;/strong&gt;&lt;/p&gt;&lt;ul&gt;&lt;li&gt;&lt;strong&gt;Cost-Effective Channels:&lt;/strong&gt; Social media and newsletters for low-cost, broad reach.&lt;/li&gt;&lt;li&gt;&lt;strong&gt;Integrated User Experience:&lt;/strong&gt; Personalized notifications and content ensure regular user engagement.&lt;/li&gt;&lt;/ul&gt;&lt;/div&gt;&lt;div style=&quot;font-size: 10px&quot;&gt;&lt;br&gt;&lt;/div&gt;" style="rounded=0;whiteSpace=wrap;html=1;shadow=0;labelBackgroundColor=none;strokeColor=#e8edf0;strokeWidth=5;fillColor=#ffffff;fontSize=12;fontColor=#2F5B7C;align=left;verticalAlign=top;spacing=30;" parent="1" vertex="1">
                    <mxGeometry x="-950" y="640" width="420" height="480" as="geometry"/>
                </mxCell>
                <mxCell id="706" value="&lt;div style=&quot;font-size: 26px&quot;&gt;&lt;font style=&quot;font-size: 26px&quot;&gt;Cost Structure&lt;/font&gt;&lt;/div&gt;&lt;div&gt;&lt;br&gt;&lt;/div&gt;&lt;div&gt;&lt;p&gt;&lt;strong&gt;Key Costs:&lt;/strong&gt;&lt;/p&gt;&lt;ul&gt;&lt;li&gt;&lt;strong&gt;Server Costs:&lt;/strong&gt; Expenses related to hosting, maintenance, and data storage for the app and website.&lt;/li&gt;&lt;li&gt;&lt;strong&gt;Labor Costs:&lt;/strong&gt; Salaries for the central journalist and freelance authors, ensuring quality content creation.&lt;/li&gt;&lt;li&gt;&lt;strong&gt;Marketing Expenses:&lt;/strong&gt; Budget for social media promotions, ads, and outreach efforts.&lt;/li&gt;&lt;/ul&gt;&lt;p&gt;&lt;strong&gt;Cost-Related Insights:&lt;/strong&gt;&lt;/p&gt;&lt;ul&gt;&lt;li&gt;&lt;strong&gt;Key Resources:&lt;/strong&gt; Server hosting is one of the most significant costs.&lt;/li&gt;&lt;li&gt;&lt;strong&gt;Key Activities:&lt;/strong&gt; Content creation and community interactions drive substantial expenses.&lt;/li&gt;&lt;li&gt;&lt;strong&gt;Cost-Driven Approach:&lt;/strong&gt; The business model focuses on cost-efficiency by hiring freelance authors and utilizing automated systems where possible.&lt;/li&gt;&lt;/ul&gt;&lt;p&gt;&lt;strong&gt;Cost Characteristics:&lt;/strong&gt;&lt;/p&gt;&lt;ul&gt;&lt;li&gt;&lt;strong&gt;Fixed Costs:&lt;/strong&gt; Salaries for the central journalist, hosting fees.&lt;/li&gt;&lt;li&gt;&lt;strong&gt;Variable Costs:&lt;/strong&gt; Freelance author payments, marketing costs can fluctuate based on strategy.&lt;/li&gt;&lt;li&gt;&lt;strong&gt;Economies of Scale:&lt;/strong&gt; As the user base grows, server costs per user may increase.&lt;br&gt;&lt;/li&gt;&lt;/ul&gt;&lt;/div&gt;" style="rounded=0;whiteSpace=wrap;html=1;shadow=0;labelBackgroundColor=none;strokeColor=#e8edf0;strokeWidth=5;fillColor=#ffffff;fontSize=12;fontColor=#2F5B7C;align=left;verticalAlign=top;spacing=30;" parent="1" vertex="1">
                    <mxGeometry x="-2210" y="1120" width="1050" height="350" as="geometry"/>
                </mxCell>
                <mxCell id="707" value="&lt;div style=&quot;font-size: 26px&quot;&gt;&lt;font style=&quot;font-size: 26px&quot;&gt;Revenue Streams&lt;/font&gt;&lt;/div&gt;&lt;div&gt;&lt;br&gt;&lt;/div&gt;&lt;div&gt;&lt;h3&gt;&lt;strong&gt;Revenue Streams&lt;/strong&gt;&lt;/h3&gt;&lt;ul&gt;&lt;li&gt;&lt;strong&gt;Advertising Revenue:&lt;/strong&gt; Income from ads displayed in the app and on the website.&lt;/li&gt;&lt;li&gt;&lt;strong&gt;Premium Subscriptions:&lt;/strong&gt; Users pay for an ad-free experience and exclusive content.&lt;/li&gt;&lt;li&gt;&lt;strong&gt;Donations and Sponsorships:&lt;/strong&gt; Funding from users and organizations supporting the platform.&lt;/li&gt;&lt;/ul&gt;&lt;p&gt;&lt;strong&gt;Customer Payment Insights:&lt;/strong&gt;&lt;/p&gt;&lt;ul&gt;&lt;li&gt;Customers value high-quality, reliable news and are willing to pay for enhanced experiences.&lt;/li&gt;&lt;li&gt;Current payment methods include subscriptions via credit/debit cards and ad revenue from advertisers.&lt;/li&gt;&lt;li&gt;Preferred methods may include mobile wallets and in-app purchases.&lt;/li&gt;&lt;/ul&gt;&lt;p&gt;&lt;strong&gt;Revenue Contribution:&lt;/strong&gt;&lt;/p&gt;&lt;ul&gt;&lt;li&gt;&lt;strong&gt;Advertising:&lt;/strong&gt; ~60%&lt;/li&gt;&lt;li&gt;&lt;strong&gt;Premium Subscriptions:&lt;/strong&gt; ~30%&lt;/li&gt;&lt;li&gt;&lt;strong&gt;Donations/Sponsorships:&lt;/strong&gt; ~10%&lt;/li&gt;&lt;/ul&gt;&lt;/div&gt;" style="rounded=0;whiteSpace=wrap;html=1;shadow=0;labelBackgroundColor=none;strokeColor=#e8edf0;strokeWidth=5;fillColor=#ffffff;fontSize=12;fontColor=#2F5B7C;align=left;verticalAlign=top;spacing=30;" parent="1" vertex="1">
                    <mxGeometry x="-1160" y="1120" width="1050" height="350" as="geometry"/>
                </mxCell>
                <mxCell id="708" value="The Business Model Canvas&lt;br&gt;" style="text;html=1;resizable=0;points=[];autosize=1;align=left;verticalAlign=top;spacingTop=-4;fontSize=60;fontColor=#2F5B7C;" parent="1" vertex="1">
                    <mxGeometry x="-2210" y="110" width="780" height="70" as="geometry"/>
                </mxCell>
                <mxCell id="709" value="" style="html=1;verticalLabelPosition=bottom;labelBackgroundColor=#ffffff;verticalAlign=top;shadow=0;dashed=0;strokeWidth=4;shape=mxgraph.ios7.misc.check;strokeColor=#2F5B7C;fillColor=#ffffff;gradientColor=none;fontSize=12;fontColor=#2F5B7C;align=left;" parent="1" vertex="1">
                    <mxGeometry x="-1410" y="252" width="20" height="16" as="geometry"/>
                </mxCell>
                <mxCell id="710" value="" style="shape=mxgraph.signs.travel.present;html=1;fillColor=#2F5B7C;strokeColor=none;verticalLabelPosition=bottom;verticalAlign=top;align=center;shadow=0;labelBackgroundColor=none;fontSize=12;fontColor=#2F5B7C;" parent="1" vertex="1">
                    <mxGeometry x="-1000" y="235" width="31" height="40" as="geometry"/>
                </mxCell>
                <mxCell id="711" value="" style="html=1;verticalLabelPosition=bottom;labelBackgroundColor=#ffffff;verticalAlign=top;strokeWidth=3;strokeColor=none;fillColor=#2F5B7C;shadow=0;dashed=0;shape=mxgraph.ios7.icons.heart;fontSize=12;fontColor=#2F5B7C;align=left;" parent="1" vertex="1">
                    <mxGeometry x="-594.9999999999997" y="242" width="41" height="36" as="geometry"/>
                </mxCell>
                <mxCell id="715" value="" style="shadow=0;dashed=0;html=1;strokeColor=none;labelPosition=center;verticalLabelPosition=bottom;verticalAlign=top;shape=mxgraph.mscae.cloud.data_factory;fillColor=#2F5B7C;labelBackgroundColor=none;fontSize=10;fontColor=#2F5B7C;align=left;" parent="1" vertex="1">
                    <mxGeometry x="-1440" y="690" width="50" height="50" as="geometry"/>
                </mxCell>
                <mxCell id="716" value="" style="shape=mxgraph.signs.transportation.truck_6;html=1;fillColor=#2F5B7C;strokeColor=none;verticalLabelPosition=bottom;verticalAlign=top;align=center;shadow=0;labelBackgroundColor=none;fontSize=10;fontColor=#2F5B7C;aspect=fixed;" parent="1" vertex="1">
                    <mxGeometry x="-590" y="690" width="40" height="50" as="geometry"/>
                </mxCell>
                <mxCell id="717" value="" style="shape=image;html=1;verticalAlign=top;verticalLabelPosition=bottom;labelBackgroundColor=#ffffff;imageAspect=0;aspect=fixed;image=https://cdn4.iconfinder.com/data/icons/evil-icons-user-interface/64/price-128.png;shadow=0;strokeColor=#e8edf0;strokeWidth=3;fillColor=#2F5B7C;gradientColor=none;fontSize=10;fontColor=#2F5B7C;align=left;" parent="1" vertex="1">
                    <mxGeometry x="-1226" y="1140" width="58" height="58" as="geometry"/>
                </mxCell>
                <mxCell id="718" value="" style="dashed=0;html=1;shape=mxgraph.aws3.checklist_cost;fillColor=#2F5B7C;gradientColor=none;shadow=0;labelBackgroundColor=none;strokeColor=none;strokeWidth=3;fontSize=10;fontColor=#2F5B7C;align=left;" parent="1" vertex="1">
                    <mxGeometry x="-203.5" y="1131.5" width="67.5" height="75" as="geometry"/>
                </mxCell>
                <mxCell id="719" value="" style="shadow=0;dashed=0;html=1;strokeColor=none;fillColor=#2F5B7C;labelPosition=center;verticalLabelPosition=bottom;verticalAlign=top;outlineConnect=0;shape=mxgraph.office.concepts.link;labelBackgroundColor=none;fontSize=10;fontColor=#000000;align=left;" parent="1" vertex="1">
                    <mxGeometry x="-1871" y="241" width="61" height="21" as="geometry"/>
                </mxCell>
                <mxCell id="720" value="" style="group" parent="1" vertex="1" connectable="0">
                    <mxGeometry x="-203.5" y="245" width="69" height="50" as="geometry"/>
                </mxCell>
                <mxCell id="721" value="" style="shadow=0;dashed=0;html=1;strokeColor=#FFFFFF;labelPosition=center;verticalLabelPosition=bottom;verticalAlign=top;outlineConnect=0;shape=mxgraph.office.users.user;fillColor=#2F5B7C;labelBackgroundColor=none;fontSize=10;fontColor=#000000;align=left;strokeWidth=2;" parent="720" vertex="1">
                    <mxGeometry x="31" y="-5" width="46" height="50" as="geometry"/>
                </mxCell>
                <mxCell id="722" value="" style="shadow=0;dashed=0;html=1;strokeColor=#FFFFFF;labelPosition=center;verticalLabelPosition=bottom;verticalAlign=top;outlineConnect=0;shape=mxgraph.office.users.user;fillColor=#2F5B7C;labelBackgroundColor=none;fontSize=10;fontColor=#000000;align=left;strokeWidth=2;" parent="720" vertex="1">
                    <mxGeometry width="46" height="50" as="geometry"/>
                </mxCell>
            </root>
        </mxGraphModel>
    </diagram>
</mxfile>